<?xml version="1.0" encoding="utf-8" standalone="no"?>
<!DOCTYPE svg PUBLIC "-//W3C//DTD SVG 1.1//EN"
  "http://www.w3.org/Graphics/SVG/1.1/DTD/svg11.dtd">
<!-- Created with matplotlib (https://matplotlib.org/) -->
<svg height="345.6pt" version="1.1" viewBox="0 0 460.8 345.6" width="460.8pt" xmlns="http://www.w3.org/2000/svg" xmlns:xlink="http://www.w3.org/1999/xlink">
 <defs>
  <style type="text/css">
*{stroke-linecap:butt;stroke-linejoin:round;}
  </style>
 </defs>
 <g id="figure_1">
  <g id="patch_1">
   <path d="M 0 345.6 
L 460.8 345.6 
L 460.8 0 
L 0 0 
z
" style="fill:#ffffff;"/>
  </g>
  <g id="axes_1">
   <g id="patch_2">
    <path d="M 57.6 307.584 
L 414.72 307.584 
L 414.72 41.472 
L 57.6 41.472 
z
" style="fill:#ffffff;"/>
   </g>
   <g id="PolyCollection_1">
    <path clip-path="url(#pc14f0bf0e6)" d="M 57.6 307.584 
L 57.6 85.824 
L 62.064 85.858645 
L 66.528 85.962513 
L 70.992 86.135412 
L 75.456 86.377017 
L 79.92 86.686879 
L 84.384 87.064423 
L 88.848 87.50895 
L 93.312 88.019644 
L 97.776 88.595572 
L 102.24 89.235692 
L 106.704 89.938854 
L 111.168 90.703804 
L 115.632 91.529197 
L 120.096 92.413594 
L 124.56 93.355472 
L 129.024 94.353231 
L 133.488 95.405199 
L 137.952 96.50964 
L 142.416 97.664757 
L 146.88 98.868706 
L 151.344 100.119594 
L 155.808 101.415493 
L 160.272 102.754443 
L 164.736 104.134459 
L 169.2 105.553537 
L 173.664 107.009664 
L 178.128 108.500819 
L 182.592 110.02498 
L 187.056 111.580133 
L 191.52 113.164274 
L 195.984 114.775414 
L 200.448 116.411586 
L 204.912 118.070847 
L 209.376 119.751284 
L 213.84 121.451016 
L 218.304 123.1682 
L 222.768 124.901029 
L 227.232 126.647743 
L 231.696 128.406623 
L 236.16 130.176 
L 240.624 131.954251 
L 245.088 133.739806 
L 249.552 135.531145 
L 254.016 137.326802 
L 258.48 139.125365 
L 262.944 140.925475 
L 267.408 142.725828 
L 271.872 144.525176 
L 276.336 146.322325 
L 280.8 148.116135 
L 285.264 149.90552 
L 289.728 151.689448 
L 294.192 153.466941 
L 298.656 155.23707 
L 303.12 156.99896 
L 307.584 158.751785 
L 312.048 160.494768 
L 316.512 162.227179 
L 320.976 163.948336 
L 325.44 165.6576 
L 329.904 167.354378 
L 334.368 169.038119 
L 338.832 170.708313 
L 343.296 172.364488 
L 347.76 174.006212 
L 352.224 175.633089 
L 356.688 177.244759 
L 361.152 178.840894 
L 365.616 180.421201 
L 370.08 181.985416 
L 374.544 183.533305 
L 379.008 185.064663 
L 383.472 186.579311 
L 387.936 188.077095 
L 392.4 189.557888 
L 396.864 191.021582 
L 401.328 192.468094 
L 405.792 193.897361 
L 410.256 195.309338 
L 414.72 196.704 
L 414.72 307.584 
L 414.72 307.584 
L 410.256 307.584 
L 405.792 307.584 
L 401.328 307.584 
L 396.864 307.584 
L 392.4 307.584 
L 387.936 307.584 
L 383.472 307.584 
L 379.008 307.584 
L 374.544 307.584 
L 370.08 307.584 
L 365.616 307.584 
L 361.152 307.584 
L 356.688 307.584 
L 352.224 307.584 
L 347.76 307.584 
L 343.296 307.584 
L 338.832 307.584 
L 334.368 307.584 
L 329.904 307.584 
L 325.44 307.584 
L 320.976 307.584 
L 316.512 307.584 
L 312.048 307.584 
L 307.584 307.584 
L 303.12 307.584 
L 298.656 307.584 
L 294.192 307.584 
L 289.728 307.584 
L 285.264 307.584 
L 280.8 307.584 
L 276.336 307.584 
L 271.872 307.584 
L 267.408 307.584 
L 262.944 307.584 
L 258.48 307.584 
L 254.016 307.584 
L 249.552 307.584 
L 245.088 307.584 
L 240.624 307.584 
L 236.16 307.584 
L 231.696 307.584 
L 227.232 307.584 
L 222.768 307.584 
L 218.304 307.584 
L 213.84 307.584 
L 209.376 307.584 
L 204.912 307.584 
L 200.448 307.584 
L 195.984 307.584 
L 191.52 307.584 
L 187.056 307.584 
L 182.592 307.584 
L 178.128 307.584 
L 173.664 307.584 
L 169.2 307.584 
L 164.736 307.584 
L 160.272 307.584 
L 155.808 307.584 
L 151.344 307.584 
L 146.88 307.584 
L 142.416 307.584 
L 137.952 307.584 
L 133.488 307.584 
L 129.024 307.584 
L 124.56 307.584 
L 120.096 307.584 
L 115.632 307.584 
L 111.168 307.584 
L 106.704 307.584 
L 102.24 307.584 
L 97.776 307.584 
L 93.312 307.584 
L 88.848 307.584 
L 84.384 307.584 
L 79.92 307.584 
L 75.456 307.584 
L 70.992 307.584 
L 66.528 307.584 
L 62.064 307.584 
L 57.6 307.584 
z
" style="fill:#1f77b4;"/>
   </g>
   <g id="matplotlib.axis_1">
    <g id="xtick_1">
     <g id="line2d_1">
      <defs>
       <path d="M 0 0 
L 0 3.5 
" id="m1c98f36b41" style="stroke:#000000;stroke-width:0.8;"/>
      </defs>
      <g>
       <use style="stroke:#000000;stroke-width:0.8;" x="57.6" xlink:href="#m1c98f36b41" y="307.584"/>
      </g>
     </g>
     <g id="text_1">
      <!-- $0.0$ -->
      <defs>
       <path d="M 42 31.84375 
C 42 37.96875 41.90625 48.421875 37.703125 56.453125 
C 34 63.484375 28.09375 66 22.90625 66 
C 18.09375 66 12 63.78125 8.203125 56.5625 
C 4.203125 49.015625 3.796875 39.671875 3.796875 31.84375 
C 3.796875 26.109375 3.90625 17.375 7 9.734375 
C 11.296875 -0.609375 19 -2 22.90625 -2 
C 27.5 -2 34.5 -0.109375 38.59375 9.4375 
C 41.59375 16.375 42 24.5 42 31.84375 
z
M 22.90625 -0.40625 
C 16.5 -0.40625 12.703125 5.125 11.296875 12.75 
C 10.203125 18.6875 10.203125 27.328125 10.203125 32.953125 
C 10.203125 40.6875 10.203125 47.109375 11.5 53.234375 
C 13.40625 61.78125 19 64.390625 22.90625 64.390625 
C 27 64.390625 32.296875 61.671875 34.203125 53.4375 
C 35.5 47.71875 35.59375 40.984375 35.59375 32.953125 
C 35.59375 26.421875 35.59375 18.375 34.40625 12.453125 
C 32.296875 1.5 26.40625 -0.40625 22.90625 -0.40625 
z
" id="CMR17-48"/>
       <path d="M 18.40625 4.796875 
C 18.40625 7.6875 16 9.6875 13.59375 9.6875 
C 10.703125 9.6875 8.703125 7.296875 8.703125 4.890625 
C 8.703125 2 11.09375 0 13.5 0 
C 16.40625 0 18.40625 2.390625 18.40625 4.796875 
z
" id="CMMI12-58"/>
      </defs>
      <g transform="translate(51.234961 321.502498)scale(0.1 -0.1)">
       <use transform="scale(0.996264)" xlink:href="#CMR17-48"/>
       <use transform="translate(45.690477 0)scale(0.996264)" xlink:href="#CMMI12-58"/>
       <use transform="translate(72.787654 0)scale(0.996264)" xlink:href="#CMR17-48"/>
      </g>
     </g>
    </g>
    <g id="xtick_2">
     <g id="line2d_2">
      <g>
       <use style="stroke:#000000;stroke-width:0.8;" x="129.024" xlink:href="#m1c98f36b41" y="307.584"/>
      </g>
     </g>
     <g id="text_2">
      <!-- $0.2$ -->
      <defs>
       <path d="M 41.703125 15.46875 
L 39.90625 15.46875 
C 38.90625 8.390625 38.09375 7.1875 37.703125 6.59375 
C 37.203125 5.796875 30 5.796875 28.59375 5.796875 
L 9.40625 5.796875 
C 13 9.6875 20 16.765625 28.5 24.9375 
C 34.59375 30.71875 41.703125 37.5 41.703125 47.390625 
C 41.703125 59.1875 32.296875 66 21.796875 66 
C 10.796875 66 4.09375 56.296875 4.09375 47.296875 
C 4.09375 43.390625 7 42.890625 8.203125 42.890625 
C 9.203125 42.890625 12.203125 43.484375 12.203125 46.984375 
C 12.203125 50.09375 9.59375 51 8.203125 51 
C 7.59375 51 7 50.890625 6.59375 50.6875 
C 8.5 59.1875 14.296875 63.390625 20.40625 63.390625 
C 29.09375 63.390625 34.796875 56.5 34.796875 47.390625 
C 34.796875 38.703125 29.703125 31.21875 24 24.734375 
L 4.09375 2.296875 
L 4.09375 0 
L 39.296875 0 
z
" id="CMR17-50"/>
      </defs>
      <g transform="translate(122.658961 321.502498)scale(0.1 -0.1)">
       <use transform="scale(0.996264)" xlink:href="#CMR17-48"/>
       <use transform="translate(45.690477 0)scale(0.996264)" xlink:href="#CMMI12-58"/>
       <use transform="translate(72.787654 0)scale(0.996264)" xlink:href="#CMR17-50"/>
      </g>
     </g>
    </g>
    <g id="xtick_3">
     <g id="line2d_3">
      <g>
       <use style="stroke:#000000;stroke-width:0.8;" x="200.448" xlink:href="#m1c98f36b41" y="307.584"/>
      </g>
     </g>
     <g id="text_3">
      <!-- $0.4$ -->
      <defs>
       <path d="M 33.59375 64.796875 
C 33.59375 66.890625 33.5 67 31.703125 67 
L 2 19.59375 
L 2 17 
L 27.796875 17 
L 27.796875 7.1875 
C 27.796875 3.59375 27.59375 2.59375 20.59375 2.59375 
L 18.703125 2.59375 
L 18.703125 0 
C 21.90625 0.1875 27.296875 0.1875 30.703125 0.1875 
C 34.09375 0.1875 39.5 0.1875 42.703125 0 
L 42.703125 2.59375 
L 40.796875 2.59375 
C 33.796875 2.59375 33.59375 3.59375 33.59375 7.1875 
L 33.59375 17 
L 43.796875 17 
L 43.796875 19.59375 
L 33.59375 19.59375 
z
M 28.09375 58.171875 
L 28.09375 19.59375 
L 4 19.59375 
z
" id="CMR17-52"/>
      </defs>
      <g transform="translate(194.082961 321.502498)scale(0.1 -0.1)">
       <use transform="scale(0.996264)" xlink:href="#CMR17-48"/>
       <use transform="translate(45.690477 0)scale(0.996264)" xlink:href="#CMMI12-58"/>
       <use transform="translate(72.787654 0)scale(0.996264)" xlink:href="#CMR17-52"/>
      </g>
     </g>
    </g>
    <g id="xtick_4">
     <g id="line2d_4">
      <g>
       <use style="stroke:#000000;stroke-width:0.8;" x="271.872" xlink:href="#m1c98f36b41" y="307.584"/>
      </g>
     </g>
     <g id="text_4">
      <!-- $0.6$ -->
      <defs>
       <path d="M 10.59375 34.34375 
C 10.59375 58 21.796875 63.6875 28.296875 63.6875 
C 30.40625 63.6875 35.5 63.265625 37.5 59.09375 
C 35.90625 59.09375 32.90625 59.09375 32.90625 55.59375 
C 32.90625 52.890625 35.09375 52 36.5 52 
C 37.40625 52 40.09375 52.390625 40.09375 55.796875 
C 40.09375 62.296875 35.09375 66 28.203125 66 
C 16.296875 66 3.796875 53.296875 3.796875 31.421875 
C 3.796875 4.015625 15.09375 -2 23.09375 -2 
C 32.796875 -2 42 6.734375 42 20.234375 
C 42 32.828125 33.90625 42 23.703125 42 
C 17.59375 42 13.09375 37.96875 10.59375 30.921875 
z
M 23.09375 0.390625 
C 10.796875 0.390625 10.796875 18.9375 10.796875 22.65625 
C 10.796875 29.90625 14.203125 40.390625 23.5 40.390625 
C 25.203125 40.390625 30.09375 40.390625 33.40625 33.4375 
C 35.203125 29.515625 35.203125 25.375 35.203125 20.34375 
C 35.203125 14.90625 35.203125 10.875 33.09375 6.84375 
C 30.90625 2.703125 27.703125 0.390625 23.09375 0.390625 
z
" id="CMR17-54"/>
      </defs>
      <g transform="translate(265.506961 321.502498)scale(0.1 -0.1)">
       <use transform="scale(0.996264)" xlink:href="#CMR17-48"/>
       <use transform="translate(45.690477 0)scale(0.996264)" xlink:href="#CMMI12-58"/>
       <use transform="translate(72.787654 0)scale(0.996264)" xlink:href="#CMR17-54"/>
      </g>
     </g>
    </g>
    <g id="xtick_5">
     <g id="line2d_5">
      <g>
       <use style="stroke:#000000;stroke-width:0.8;" x="343.296" xlink:href="#m1c98f36b41" y="307.584"/>
      </g>
     </g>
     <g id="text_5">
      <!-- $0.8$ -->
      <defs>
       <path d="M 27.203125 35.765625 
C 33.5 38.96875 39.90625 43.796875 39.90625 51.53125 
C 39.90625 60.6875 31.09375 66 23 66 
C 13.90625 66 5.90625 59.375 5.90625 50.234375 
C 5.90625 47.71875 6.5 43.390625 10.40625 39.578125 
C 11.40625 38.578125 15.59375 35.5625 18.296875 33.65625 
C 13.796875 31.34375 3.296875 25.8125 3.296875 14.765625 
C 3.296875 4.40625 13.09375 -2 22.796875 -2 
C 33.5 -2 42.5 5.71875 42.5 15.96875 
C 42.5 25.109375 36.40625 29.328125 32.40625 32.046875 
z
M 14.09375 44.609375 
C 13.296875 45.109375 9.296875 48.21875 9.296875 52.9375 
C 9.296875 59.078125 15.59375 63.6875 22.796875 63.6875 
C 30.703125 63.6875 36.5 58.0625 36.5 51.53125 
C 36.5 42.1875 26.09375 36.859375 25.59375 36.859375 
C 25.5 36.859375 25.40625 36.859375 24.59375 37.46875 
z
M 32.5 24 
C 34 22.90625 38.796875 19.578125 38.796875 13.453125 
C 38.796875 6.015625 31.40625 0.390625 23 0.390625 
C 13.90625 0.390625 7 6.921875 7 14.859375 
C 7 22.796875 13.09375 29.4375 20 32.546875 
z
" id="CMR17-56"/>
      </defs>
      <g transform="translate(336.930961 321.502498)scale(0.1 -0.1)">
       <use transform="scale(0.996264)" xlink:href="#CMR17-48"/>
       <use transform="translate(45.690477 0)scale(0.996264)" xlink:href="#CMMI12-58"/>
       <use transform="translate(72.787654 0)scale(0.996264)" xlink:href="#CMR17-56"/>
      </g>
     </g>
    </g>
    <g id="xtick_6">
     <g id="line2d_6">
      <g>
       <use style="stroke:#000000;stroke-width:0.8;" x="414.72" xlink:href="#m1c98f36b41" y="307.584"/>
      </g>
     </g>
     <g id="text_6">
      <!-- $1.0$ -->
      <defs>
       <path d="M 26.59375 63.796875 
C 26.59375 65.890625 26.5 66 25.09375 66 
C 21.203125 61.359375 15.296875 59.890625 9.703125 59.6875 
C 9.40625 59.6875 8.90625 59.6875 8.796875 59.5 
C 8.703125 59.296875 8.703125 59.09375 8.703125 57 
C 11.796875 57 17 57.59375 21 59.984375 
L 21 7.296875 
C 21 3.796875 20.796875 2.59375 12.203125 2.59375 
L 9.203125 2.59375 
L 9.203125 0 
C 14 0.09375 19 0.1875 23.796875 0.1875 
C 28.59375 0.1875 33.59375 0.09375 38.40625 0 
L 38.40625 2.59375 
L 35.40625 2.59375 
C 26.796875 2.59375 26.59375 3.6875 26.59375 7.296875 
z
" id="CMR17-49"/>
      </defs>
      <g transform="translate(408.354961 321.502498)scale(0.1 -0.1)">
       <use transform="scale(0.996264)" xlink:href="#CMR17-49"/>
       <use transform="translate(45.690477 0)scale(0.996264)" xlink:href="#CMMI12-58"/>
       <use transform="translate(72.787654 0)scale(0.996264)" xlink:href="#CMR17-48"/>
      </g>
     </g>
    </g>
   </g>
   <g id="matplotlib.axis_2">
    <g id="ytick_1">
     <g id="line2d_7">
      <defs>
       <path d="M 0 0 
L -3.5 0 
" id="mb04c094023" style="stroke:#000000;stroke-width:0.8;"/>
      </defs>
      <g>
       <use style="stroke:#000000;stroke-width:0.8;" x="57.6" xlink:href="#mb04c094023" y="307.584"/>
      </g>
     </g>
     <g id="text_7">
      <!-- $0.0$ -->
      <g transform="translate(37.869921 311.043249)scale(0.1 -0.1)">
       <use transform="scale(0.996264)" xlink:href="#CMR17-48"/>
       <use transform="translate(45.690477 0)scale(0.996264)" xlink:href="#CMMI12-58"/>
       <use transform="translate(72.787654 0)scale(0.996264)" xlink:href="#CMR17-48"/>
      </g>
     </g>
    </g>
    <g id="ytick_2">
     <g id="line2d_8">
      <g>
       <use style="stroke:#000000;stroke-width:0.8;" x="57.6" xlink:href="#mb04c094023" y="263.232"/>
      </g>
     </g>
     <g id="text_8">
      <!-- $0.2$ -->
      <g transform="translate(37.869921 266.691249)scale(0.1 -0.1)">
       <use transform="scale(0.996264)" xlink:href="#CMR17-48"/>
       <use transform="translate(45.690477 0)scale(0.996264)" xlink:href="#CMMI12-58"/>
       <use transform="translate(72.787654 0)scale(0.996264)" xlink:href="#CMR17-50"/>
      </g>
     </g>
    </g>
    <g id="ytick_3">
     <g id="line2d_9">
      <g>
       <use style="stroke:#000000;stroke-width:0.8;" x="57.6" xlink:href="#mb04c094023" y="218.88"/>
      </g>
     </g>
     <g id="text_9">
      <!-- $0.4$ -->
      <g transform="translate(37.869921 222.339249)scale(0.1 -0.1)">
       <use transform="scale(0.996264)" xlink:href="#CMR17-48"/>
       <use transform="translate(45.690477 0)scale(0.996264)" xlink:href="#CMMI12-58"/>
       <use transform="translate(72.787654 0)scale(0.996264)" xlink:href="#CMR17-52"/>
      </g>
     </g>
    </g>
    <g id="ytick_4">
     <g id="line2d_10">
      <g>
       <use style="stroke:#000000;stroke-width:0.8;" x="57.6" xlink:href="#mb04c094023" y="174.528"/>
      </g>
     </g>
     <g id="text_10">
      <!-- $0.6$ -->
      <g transform="translate(37.869921 177.987249)scale(0.1 -0.1)">
       <use transform="scale(0.996264)" xlink:href="#CMR17-48"/>
       <use transform="translate(45.690477 0)scale(0.996264)" xlink:href="#CMMI12-58"/>
       <use transform="translate(72.787654 0)scale(0.996264)" xlink:href="#CMR17-54"/>
      </g>
     </g>
    </g>
    <g id="ytick_5">
     <g id="line2d_11">
      <g>
       <use style="stroke:#000000;stroke-width:0.8;" x="57.6" xlink:href="#mb04c094023" y="130.176"/>
      </g>
     </g>
     <g id="text_11">
      <!-- $0.8$ -->
      <g transform="translate(37.869921 133.635249)scale(0.1 -0.1)">
       <use transform="scale(0.996264)" xlink:href="#CMR17-48"/>
       <use transform="translate(45.690477 0)scale(0.996264)" xlink:href="#CMMI12-58"/>
       <use transform="translate(72.787654 0)scale(0.996264)" xlink:href="#CMR17-56"/>
      </g>
     </g>
    </g>
    <g id="ytick_6">
     <g id="line2d_12">
      <g>
       <use style="stroke:#000000;stroke-width:0.8;" x="57.6" xlink:href="#mb04c094023" y="85.824"/>
      </g>
     </g>
     <g id="text_12">
      <!-- $1.0$ -->
      <g transform="translate(37.869921 89.283249)scale(0.1 -0.1)">
       <use transform="scale(0.996264)" xlink:href="#CMR17-49"/>
       <use transform="translate(45.690477 0)scale(0.996264)" xlink:href="#CMMI12-58"/>
       <use transform="translate(72.787654 0)scale(0.996264)" xlink:href="#CMR17-48"/>
      </g>
     </g>
    </g>
    <g id="ytick_7">
     <g id="line2d_13">
      <g>
       <use style="stroke:#000000;stroke-width:0.8;" x="57.6" xlink:href="#mb04c094023" y="41.472"/>
      </g>
     </g>
     <g id="text_13">
      <!-- $1.2$ -->
      <g transform="translate(37.869921 44.931249)scale(0.1 -0.1)">
       <use transform="scale(0.996264)" xlink:href="#CMR17-49"/>
       <use transform="translate(45.690477 0)scale(0.996264)" xlink:href="#CMMI12-58"/>
       <use transform="translate(72.787654 0)scale(0.996264)" xlink:href="#CMR17-50"/>
      </g>
     </g>
    </g>
   </g>
   <g id="line2d_14">
    <path clip-path="url(#pc14f0bf0e6)" d="M 57.6 85.824 
L 62.064 85.858645 
L 66.528 85.962513 
L 70.992 86.135412 
L 75.456 86.377017 
L 79.92 86.686879 
L 84.384 87.064423 
L 88.848 87.50895 
L 93.312 88.019644 
L 97.776 88.595572 
L 102.24 89.235692 
L 106.704 89.938854 
L 111.168 90.703804 
L 115.632 91.529197 
L 120.096 92.413594 
L 124.56 93.355472 
L 129.024 94.353231 
L 133.488 95.405199 
L 137.952 96.50964 
L 142.416 97.664757 
L 146.88 98.868706 
L 151.344 100.119594 
L 155.808 101.415493 
L 160.272 102.754443 
L 164.736 104.134459 
L 169.2 105.553537 
L 173.664 107.009664 
L 178.128 108.500819 
L 182.592 110.02498 
L 187.056 111.580133 
L 191.52 113.164274 
L 195.984 114.775414 
L 200.448 116.411586 
L 204.912 118.070847 
L 209.376 119.751284 
L 213.84 121.451016 
L 218.304 123.1682 
L 222.768 124.901029 
L 227.232 126.647743 
L 231.696 128.406623 
L 236.16 130.176 
L 240.624 131.954251 
L 245.088 133.739806 
L 249.552 135.531145 
L 254.016 137.326802 
L 258.48 139.125365 
L 262.944 140.925475 
L 267.408 142.725828 
L 271.872 144.525176 
L 276.336 146.322325 
L 280.8 148.116135 
L 285.264 149.90552 
L 289.728 151.689448 
L 294.192 153.466941 
L 298.656 155.23707 
L 303.12 156.99896 
L 307.584 158.751785 
L 312.048 160.494768 
L 316.512 162.227179 
L 320.976 163.948336 
L 325.44 165.6576 
L 329.904 167.354378 
L 334.368 169.038119 
L 338.832 170.708313 
L 343.296 172.364488 
L 347.76 174.006212 
L 352.224 175.633089 
L 356.688 177.244759 
L 361.152 178.840894 
L 365.616 180.421201 
L 370.08 181.985416 
L 374.544 183.533305 
L 379.008 185.064663 
L 383.472 186.579311 
L 387.936 188.077095 
L 392.4 189.557888 
L 396.864 191.021582 
L 401.328 192.468094 
L 405.792 193.897361 
L 410.256 195.309338 
L 414.72 196.704 
" style="fill:none;stroke:#1f77b4;stroke-linecap:square;stroke-width:1.5;"/>
   </g>
   <g id="patch_3">
    <path d="M 57.6 307.584 
L 57.6 41.472 
" style="fill:none;stroke:#000000;stroke-linecap:square;stroke-linejoin:miter;stroke-width:0.8;"/>
   </g>
   <g id="patch_4">
    <path d="M 414.72 307.584 
L 414.72 41.472 
" style="fill:none;stroke:#000000;stroke-linecap:square;stroke-linejoin:miter;stroke-width:0.8;"/>
   </g>
   <g id="patch_5">
    <path d="M 57.6 307.584 
L 414.72 307.584 
" style="fill:none;stroke:#000000;stroke-linecap:square;stroke-linejoin:miter;stroke-width:0.8;"/>
   </g>
   <g id="patch_6">
    <path d="M 57.6 41.472 
L 414.72 41.472 
" style="fill:none;stroke:#000000;stroke-linecap:square;stroke-linejoin:miter;stroke-width:0.8;"/>
   </g>
   <g id="text_14">
    <!-- $\int_{n=0}^1 \frac{1}{1+x^2}$ -->
    <defs>
     <path d="M 27.203125 -88.40625 
C 25.90625 -104.8125 22.296875 -109 16.59375 -109 
C 15.296875 -109 12.296875 -108.75 10.203125 -107.1875 
C 13.09375 -106.8125 13.90625 -104.5 13.90625 -103.109375 
C 13.90625 -100.203125 11.703125 -98.90625 9.796875 -98.90625 
C 7.796875 -98.90625 5.59375 -100.203125 5.59375 -103.203125 
C 5.59375 -107.875 10.59375 -111.203125 16.59375 -111.203125 
C 26.09375 -111.203125 30.90625 -102.8125 33.09375 -93.8125 
C 34.40625 -88.609375 38 -59.5 38.796875 -48.40625 
L 40.703125 -23.5 
C 42.09375 -5.109375 45.5 -2.203125 50 -2.203125 
C 51 -2.203125 54.09375 -2.4375 56.296875 -4.671875 
C 53.40625 -5.109375 52.59375 -7.40625 52.59375 -8.8125 
C 52.59375 -11.703125 54.796875 -13 56.703125 -13 
C 58.703125 -13 60.90625 -11.703125 60.90625 -8.703125 
C 60.90625 -3.734375 55.90625 0 49.90625 0 
C 40.40625 0 36.5 -10.109375 34.796875 -17.703125 
C 33.59375 -23.203125 30 -51.40625 29.09375 -63.5 
z
" id="CMEX10-82"/>
     <path d="M 20.59375 29.21875 
C 20.796875 29.828125 23.296875 34.8125 27 38 
C 29.59375 40.390625 33 41.984375 36.90625 41.984375 
C 40.90625 41.984375 42.296875 39 42.296875 35.015625 
C 42.296875 29.328125 38.203125 17.953125 36.203125 12.5625 
C 35.296875 10.171875 34.796875 8.875 34.796875 7.078125 
C 34.796875 2.59375 37.90625 -1 42.703125 -1 
C 52 -1 55.5 13.65625 55.5 14.265625 
C 55.5 14.765625 55.09375 15.15625 54.5 15.15625 
C 53.59375 15.15625 53.5 14.859375 53 13.15625 
C 50.703125 4.984375 46.90625 1 43 1 
C 42 1 40.40625 1.09375 40.40625 4.28125 
C 40.40625 6.78125 41.5 9.765625 42.09375 11.171875 
C 44.09375 16.65625 48.296875 27.828125 48.296875 33.515625 
C 48.296875 39.5 44.796875 44 37.203125 44 
C 28.296875 44 23.59375 37.703125 21.796875 35.203125 
C 21.5 40.890625 17.40625 44 13 44 
C 9.796875 44 7.59375 42.09375 5.90625 38.703125 
C 4.09375 35.109375 2.703125 29.125 2.703125 28.71875 
C 2.703125 28.328125 3.09375 27.828125 3.796875 27.828125 
C 4.59375 27.828125 4.703125 27.921875 5.296875 30.21875 
C 6.90625 36.3125 8.703125 41.984375 12.703125 41.984375 
C 15 41.984375 15.796875 40.390625 15.796875 37.40625 
C 15.796875 35.203125 14.796875 31.3125 14.09375 28.234375 
L 11.296875 17.453125 
C 10.90625 15.5625 9.796875 11.0625 9.296875 9.265625 
C 8.59375 6.671875 7.5 1.984375 7.5 1.484375 
C 7.5 0.09375 8.59375 -1 10.09375 -1 
C 11.296875 -1 12.703125 -0.40625 13.5 1.09375 
C 13.703125 1.59375 14.59375 5.078125 15.09375 7.078125 
L 17.296875 16.0625 
z
" id="CMMI12-110"/>
     <path d="M 64.296875 32 
C 65.796875 32 67.296875 32 67.296875 33.6875 
C 67.296875 35.5 65.59375 35.5 63.90625 35.5 
L 8 35.5 
C 6.296875 35.5 4.59375 35.5 4.59375 33.6875 
C 4.59375 32 6.09375 32 7.59375 32 
z
M 63.90625 14.484375 
C 65.59375 14.484375 67.296875 14.484375 67.296875 16.296875 
C 67.296875 18 65.796875 18 64.296875 18 
L 7.59375 18 
C 6.09375 18 4.59375 18 4.59375 16.296875 
C 4.59375 14.484375 6.296875 14.484375 8 14.484375 
z
" id="CMR17-61"/>
     <path d="M 37.703125 23 
L 64.203125 23 
C 65.59375 23 67.296875 23 67.296875 24.6875 
C 67.296875 26.5 65.703125 26.5 64.203125 26.5 
L 37.703125 26.5 
L 37.703125 52.890625 
C 37.703125 54.296875 37.703125 56 36 56 
C 34.203125 56 34.203125 54.390625 34.203125 52.890625 
L 34.203125 26.5 
L 7.703125 26.5 
C 6.296875 26.5 4.59375 26.5 4.59375 24.796875 
C 4.59375 23 6.203125 23 7.703125 23 
L 34.203125 23 
L 34.203125 -3.03125 
C 34.203125 -4.40625 34.203125 -6.109375 35.90625 -6.109375 
C 37.703125 -6.109375 37.703125 -4.515625 37.703125 -3.03125 
z
" id="CMR17-43"/>
     <path d="M 47.40625 41 
C 44.203125 40.390625 43 37.984375 43 36.09375 
C 43 33.6875 44.90625 32.890625 46.296875 32.890625 
C 49.296875 32.890625 51.40625 35.484375 51.40625 38.1875 
C 51.40625 42.09375 46.59375 44 42.40625 44 
C 36.296875 44 32.90625 38.296875 32 36.390625 
C 29.703125 43.59375 23.5 44 21.703125 44 
C 11.5 44 6.09375 31.140625 6.09375 28.890625 
C 6.09375 28.484375 6.5 27.96875 7.203125 27.96875 
C 8 27.96875 8.203125 28.578125 8.40625 28.984375 
C 11.796875 40.1875 18.5 41.984375 21.40625 41.984375 
C 25.90625 41.984375 26.796875 38.09375 26.796875 35.6875 
C 26.796875 33.484375 26.203125 31.140625 25 26.21875 
L 21.59375 12.15625 
C 20.09375 6.09375 17.203125 1 11.90625 1 
C 11.40625 1 8.90625 1 6.796875 1.96875 
C 10.40625 2.59375 11.203125 5.59375 11.203125 6.796875 
C 11.203125 8.796875 9.703125 10 7.796875 10 
C 5.40625 10 2.796875 7.890625 2.796875 4.6875 
C 2.796875 0.890625 7.5 -1 11.796875 -1 
C 16.59375 -1 20 2.390625 22.09375 6.484375 
C 23.703125 1 28.703125 -1 32.40625 -1 
C 42.59375 -1 48 11.734375 48 14 
C 48 14.515625 47.59375 14.921875 47 14.921875 
C 46.09375 14.921875 46 14.40625 45.703125 13.59375 
C 43 4.6875 37.203125 1 32.703125 1 
C 29.203125 1 27.296875 3.1875 27.296875 7.296875 
C 27.296875 9.484375 27.703125 11.125 29.296875 17.90625 
L 32.796875 31.859375 
C 34.296875 37.890625 37.703125 41.984375 42.296875 41.984375 
C 42.5 41.984375 45.296875 41.984375 47.40625 41 
z
" id="CMMI12-120"/>
    </defs>
    <g style="fill:#ff0000;" transform="translate(271.872 130.176)scale(0.36 -0.36)">
     <use transform="translate(0 114.610403)scale(0.996264)" xlink:href="#CMEX10-82"/>
     <use transform="translate(66.417803 87.683911)scale(0.697382)" xlink:href="#CMR17-49"/>
     <use transform="translate(47.045898 0.426395)scale(0.697382)" xlink:href="#CMMI12-110"/>
     <use transform="translate(87.806742 0.426395)scale(0.697382)" xlink:href="#CMR17-61"/>
     <use transform="translate(138.006873 0.426395)scale(0.697382)" xlink:href="#CMR17-48"/>
     <use transform="translate(244.461687 73.581354)scale(0.697382)" xlink:href="#CMR17-49"/>
     <use transform="translate(188.288106 0)scale(0.697382)" xlink:href="#CMR17-49"/>
     <use transform="translate(220.271288 0)scale(0.697382)" xlink:href="#CMR17-43"/>
     <use transform="translate(270.471419 0)scale(0.697382)" xlink:href="#CMMI12-120"/>
     <use transform="translate(309.275079 20.146573)scale(0.498132)" xlink:href="#CMR17-50"/>
     <path d="M 188.288106 57.269386 
L 332.618449 57.269386 
L 332.618449 61.254336 
L 188.288106 61.254336 
L 188.288106 57.269386 
z
"/>
    </g>
   </g>
  </g>
 </g>
 <defs>
  <clipPath id="pc14f0bf0e6">
   <rect height="266.112" width="357.12" x="57.6" y="41.472"/>
  </clipPath>
 </defs>
</svg>
